{
  "accessors": [
    {
      "bufferView": 2,
      "componentType": 5126,
      "count": 365,
      "max": [
        40.27980041503906,
        22.049400329589844,
        55.54570007324219
      ],
      "min": [
        -34.360801696777344,
        -33.5,
        -4.999999873689376e-06
      ],
      "type": "VEC3"
    },
    {
      "bufferView": 2,
      "byteOffset": 4380,
      "componentType": 5126,
      "count": 365,
      "max": [
        0.9433584213256836,
        0.9637821912765503,
        0.9471978545188904
      ],
      "min": [
        -0.903510332107544,
        -0.941285252571106,
        0.20270827412605286
      ],
      "type": "VEC3"
    },
    {
      "bufferView": 1,
      "componentType": 5126,
      "count": 365,
      "max": [
        1.2681200504302979,
        2.4423999786376953
      ],
      "min": [
        -0.5072780251502991,
        -1.5106600522994995
      ],
      "type": "VEC2"
    },
    {
      "bufferView": 0,
      "componentType": 5125,
      "count": 540,
      "type": "SCALAR"
    },
    {
      "bufferView": 2,
      "byteOffset": 8760,
      "componentType": 5126,
      "count": 74,
      "max": [
        33.742000579833984,
        13.909299850463867,
        52.21649932861328
      ],
      "min": [
        -35.29999923706055,
        -33.5,
        -4.999999873689376e-06
      ],
      "type": "VEC3"
    },
    {
      "bufferView": 2,
      "byteOffset": 9648,
      "componentType": 5126,
      "count": 74,
      "max": [
        0.8130207657814026,
        0.9148073196411133,
        0.8470202684402466
      ],
      "min": [
        -0.8886829614639282,
        -0.8949809074401855,
        0.34480977058410645
      ],
      "type": "VEC3"
    },
    {
      "bufferView": 1,
      "byteOffset": 2920,
      "componentType": 5126,
      "count": 74,
      "max": [
        1.240280032157898,
        1.6488699913024902
      ],
      "min": [
        -0.6555669903755188,
        -1.8798099756240845
      ],
      "type": "VEC2"
    },
    {
      "bufferView": 0,
      "byteOffset": 2160,
      "componentType": 5125,
      "count": 126,
      "type": "SCALAR"
    }
  ],
  "asset": {
    "extras": {
      "author": "Artbake Graphics (https://sketchfab.com/ismir)",
      "license": "CC-BY-4.0 (http://creativecommons.org/licenses/by/4.0/)",
      "source": "https://sketchfab.com/3d-models/mountain-a45e579a7d754a1dbf40cdc5cdfe508a",
      "title": "Mountain"
    },
    "generator": "Sketchfab-12.68.0",
    "version": "2.0"
  },
  "bufferViews": [
    {
      "buffer": 0,
      "byteLength": 2664,
      "name": "floatBufferViews",
      "target": 34963
    },
    {
      "buffer": 0,
      "byteLength": 3512,
      "byteOffset": 2664,
      "byteStride": 8,
      "name": "floatBufferViews",
      "target": 34962
    },
    {
      "buffer": 0,
      "byteLength": 10536,
      "byteOffset": 6176,
      "byteStride": 12,
      "name": "floatBufferViews",
      "target": 34962
    }
  ],
  "buffers": [
    {
      "byteLength": 16712,
      "uri": "scene.bin"
    }
  ],
  "images": [
    {
      "uri": "textures/gray_baseColor.png"
    },
    {
      "uri": "textures/green_baseColor.png"
    }
  ],
  "materials": [
    {
      "doubleSided": true,
      "name": "gray",
      "pbrMetallicRoughness": {
        "baseColorTexture": {
          "index": 0
        },
        "metallicFactor": 0.0,
        "roughnessFactor": 0.8967044177
      }
    },
    {
      "doubleSided": true,
      "name": "green",
      "pbrMetallicRoughness": {
        "baseColorTexture": {
          "index": 1
        },
        "metallicFactor": 0.0,
        "roughnessFactor": 0.8967044177
      }
    }
  ],
  "meshes": [
    {
      "name": "Object_0",
      "primitives": [
        {
          "attributes": {
            "NORMAL": 1,
            "POSITION": 0,
            "TEXCOORD_0": 2
          },
          "indices": 3,
          "material": 0,
          "mode": 4
        }
      ]
    },
    {
      "name": "Object_1",
      "primitives": [
        {
          "attributes": {
            "NORMAL": 5,
            "POSITION": 4,
            "TEXCOORD_0": 6
          },
          "indices": 7,
          "material": 1,
          "mode": 4
        }
      ]
    }
  ],
  "nodes": [
    {
      "children": [
        1
      ],
      "matrix": [
        1.0,
        0.0,
        0.0,
        0.0,
        0.0,
        2.220446049250313e-16,
        -1.0,
        0.0,
        0.0,
        1.0,
        2.220446049250313e-16,
        0.0,
        0.0,
        0.0,
        0.0,
        1.0
      ],
      "name": "Sketchfab_model"
    },
    {
      "children": [
        2,
        3
      ],
      "name": "mountain.obj.cleaner.materialmerger.gles"
    },
    {
      "mesh": 0,
      "name": "Object_2"
    },
    {
      "mesh": 1,
      "name": "Object_3"
    }
  ],
  "samplers": [
    {
      "magFilter": 9729,
      "minFilter": 9987,
      "wrapS": 10497,
      "wrapT": 10497
    }
  ],
  "scene": 0,
  "scenes": [
    {
      "name": "Sketchfab_Scene",
      "nodes": [
        0
      ]
    }
  ],
  "textures": [
    {
      "sampler": 0,
      "source": 0
    },
    {
      "sampler": 0,
      "source": 1
    }
  ]
}
